<svg width="20" height="20" viewBox="0 0 20 20" fill="none" xmlns="http://www.w3.org/2000/svg">
<path d="M5.27344 10.5859C6.0026 11.3151 6.88802 11.6797 7.92969 11.6797C8.97135 11.6797 9.85677 11.3151 10.5859 10.5859C11.3151 9.85677 11.6797 8.97135 11.6797 7.92969C11.6797 6.88802 11.3151 6.0026 10.5859 5.27344C9.85677 4.54427 8.97135 4.17969 7.92969 4.17969C6.88802 4.17969 6.0026 4.54427 5.27344 5.27344C4.54427 6.0026 4.17969 6.88802 4.17969 7.92969C4.17969 8.97135 4.54427 9.85677 5.27344 10.5859ZM12.9297 11.6797L17.0703 15.8203L15.8203 17.0703L11.6797 12.9297V12.2656L11.4453 12.0312C10.4557 12.8906 9.28385 13.3203 7.92969 13.3203C6.41927 13.3203 5.13021 12.7995 4.0625 11.7578C3.02083 10.7161 2.5 9.4401 2.5 7.92969C2.5 6.41927 3.02083 5.14323 4.0625 4.10156C5.13021 3.03385 6.41927 2.5 7.92969 2.5C9.4401 2.5 10.7161 3.03385 11.7578 4.10156C12.7995 5.14323 13.3203 6.41927 13.3203 7.92969C13.3203 9.28385 12.8906 10.4557 12.0312 11.4453L12.2656 11.6797H12.9297Z" fill="#1A1717"/>
</svg>
